<?xml version="1.0" encoding="utf-8"?>
<!-- Generator: Adobe Illustrator 23.0.0, SVG Export Plug-In . SVG Version: 6.00 Build 0)  -->
<svg version="1.1" id="OBJECTS" xmlns="http://www.w3.org/2000/svg" xmlns:xlink="http://www.w3.org/1999/xlink" x="0px" y="0px"
	 viewBox="0 0 358.8 309.92" style="enable-background:new 0 0 358.8 309.92;" xml:space="preserve">
<style type="text/css">
	.st0{enable-background:new    ;}
	.st1{fill:#EC827D;}
	.st2{fill:#E56363;}
	.st3{fill:#F99898;}
	.st4{fill:#FBD15B;}
	.st5{fill:#EFBC3F;}
	.st6{fill:#FCDD92;}
	.st7{fill:#A5B7C6;}
	.st8{fill:#BFCED8;}
	.st9{fill:#112B46;}
	.st10{fill:#878CF0;}
	.st11{fill:#8FA6B5;}
	.st12{fill:#516193;}
	.st13{fill:#BEE1F4;}
	.st14{fill:#56548C;}
	.st15{fill:#2C2264;}
	.st16{fill:#4D338B;}
	.st17{fill:#FFFFFF;}
	.st18{fill:#FF82B1;}
	.st19{fill:#FA9887;}
	.st20{fill:#487596;}
	.st21{fill:#3D5E7C;}
	.st22{fill:#0F3247;}
	.st23{fill:#606BF1;}
	.st24{fill-rule:evenodd;clip-rule:evenodd;fill:#112B46;}
	.st25{fill-rule:evenodd;clip-rule:evenodd;fill:#56548C;}
	.st26{fill-rule:evenodd;clip-rule:evenodd;fill:#FFC8AF;}
	.st27{fill-rule:evenodd;clip-rule:evenodd;fill:#20318D;}
	.st28{fill-rule:evenodd;clip-rule:evenodd;fill:#2C2264;}
	.st29{fill-rule:evenodd;clip-rule:evenodd;fill:#EC827D;}
	.st30{fill:#6F6FA5;}
	.st31{fill:#CECCFF;}
	.st32{fill-rule:evenodd;clip-rule:evenodd;fill:#FFFFFF;}
	.st33{fill-rule:evenodd;clip-rule:evenodd;fill:#F4AE92;}
	.st34{fill-rule:evenodd;clip-rule:evenodd;fill:#E8F2F9;}
	.st35{fill:#FFC8AF;}
	.st36{fill-rule:evenodd;clip-rule:evenodd;fill:#606BF1;}
	.st37{fill-rule:evenodd;clip-rule:evenodd;fill:#2B3BBD;}
	.st38{fill-rule:evenodd;clip-rule:evenodd;fill:#CECCFF;}
	.st39{fill-rule:evenodd;clip-rule:evenodd;fill:#FF8E00;}
	.st40{fill-rule:evenodd;clip-rule:evenodd;fill:#FBD15B;}
	.st41{fill-rule:evenodd;clip-rule:evenodd;fill:#878CF0;}
	.st42{fill:#46467F;}
	.st43{fill-rule:evenodd;clip-rule:evenodd;fill:#E56363;}
	.st44{fill:#66669E;}
</style>
<g>
	<g id="XMLID_1340_">
		<g class="st0">
			<g id="XMLID_1345_">
				<polygon id="XMLID_1346_" class="st1" points="232.81,86.87 232.71,137.93 173.52,172.34 173.61,121.27 				"/>
			</g>
			<g id="XMLID_1343_">
				<polygon id="XMLID_1344_" class="st2" points="173.61,121.27 173.52,172.34 85.07,121.27 85.16,70.21 				"/>
			</g>
			<g id="XMLID_1341_">
				<polygon id="XMLID_1342_" class="st3" points="232.81,86.87 173.61,121.27 85.16,70.21 144.36,35.8 				"/>
			</g>
		</g>
	</g>
	<g id="XMLID_1333_">
		<g class="st0">
			<g id="XMLID_1338_">
				<polygon id="XMLID_1339_" class="st4" points="123.1,158.11 123.01,184.87 63.81,219.27 63.9,192.51 				"/>
			</g>
			<g id="XMLID_1336_">
				<polygon id="XMLID_1337_" class="st5" points="63.9,192.51 63.81,219.27 0,182.42 0.09,155.67 				"/>
			</g>
			<g id="XMLID_1334_">
				<polygon id="XMLID_1335_" class="st6" points="123.1,158.11 63.9,192.51 0.09,155.67 59.29,121.27 				"/>
			</g>
		</g>
	</g>
	<g id="XMLID_33_">
		<g id="XMLID_34_">
			<path id="XMLID_1332_" class="st7" d="M206.48,75.31l-1.84,1.07c0.33-0.19,0.54-0.6,0.54-1.19l1.84-1.07
				C207.02,74.7,206.81,75.11,206.48,75.31z"/>
			<g id="XMLID_1326_">
				<polygon id="XMLID_1330_" class="st7" points="205.28,33.37 207.12,32.29 207.02,74.12 205.18,75.19 				"/>
				<path class="st8" d="M205.28,29.09L155.33,0.26c-0.52-0.3-0.98-0.33-1.32-0.13l-1.84,1.07c0.34-0.2,0.8-0.17,1.32,0.13
					l49.94,28.83c1.02,0.59,1.85,2.02,1.85,3.2l1.84-1.07C207.13,31.11,206.29,29.68,205.28,29.09z"/>
				<path id="XMLID_1327_" class="st9" d="M203.43,30.16c1.02,0.59,1.85,2.02,1.85,3.2l-0.1,41.82c0,1.18-0.84,1.65-1.86,1.06
					l-49.94-28.83c-1.03-0.59-1.85-2.02-1.85-3.2l0.1-41.82c0-1.18,0.83-1.65,1.86-1.06L203.43,30.16z"/>
				<polygon class="st10" points="153.48,5.53 153.38,43.21 203.33,72.04 203.42,34.37 				"/>
			</g>
			<g id="XMLID_39_">
				<g id="XMLID_1318_">
					<path id="XMLID_1324_" class="st7" d="M204.08,77.33l-0.01,2.13c0,0.39-0.25,0.77-0.76,1.06l0.01-2.13
						C203.83,78.1,204.08,77.71,204.08,77.33z"/>
					<path id="XMLID_1323_" class="st7" d="M167.53,99.14l-0.01,2.13c-1.01,0.59-2.68,0.59-3.7,0l0.01-2.13
						C164.85,99.73,166.51,99.73,167.53,99.14z"/>
					<path id="XMLID_1322_" class="st11" d="M113.11,71.37l0.01-2.13c0,0.39,0.26,0.78,0.77,1.08l-0.01,2.13
						C113.36,72.15,113.11,71.75,113.11,71.37z"/>
					<polygon id="XMLID_1321_" class="st7" points="203.33,78.39 203.32,80.53 167.52,101.28 167.53,99.14 					"/>
					<polygon id="XMLID_1320_" class="st11" points="163.83,99.14 163.82,101.28 113.88,72.44 113.89,70.31 					"/>
					<path id="XMLID_1319_" class="st8" d="M203.32,76.25c1.02,0.59,1.02,1.55,0.01,2.14l-35.8,20.75c-1.01,0.59-2.68,0.59-3.7,0
						l-49.94-28.83c-1.03-0.59-1.02-1.55-0.01-2.14l35.8-20.75c1.01-0.59,2.67-0.59,3.7,0L203.32,76.25z"/>
				</g>
				<g id="XMLID_1315_">
					<g class="st0">
						<g id="XMLID_1316_">
							<path id="XMLID_1317_" class="st7" d="M162.8,81.66l-18.41-10.63c-0.51-0.29-1.33-0.3-1.85,0l-9.51,5.47
								c-0.51,0.29-0.5,0.78,0.01,1.07l18.41,10.63c0.52,0.3,1.34,0.29,1.85,0l9.51-5.47C163.32,82.43,163.32,81.95,162.8,81.66"/>
						</g>
					</g>
				</g>
				<g id="XMLID_48_">
					<g class="st0">
						<g id="XMLID_1313_">
							<polygon id="XMLID_1314_" class="st12" points="153.92,50.67 153.92,51.21 150.56,53.16 150.56,52.63 							"/>
						</g>
						<g id="XMLID_1311_">
							<polygon id="XMLID_1312_" class="st12" points="150.56,52.63 150.56,53.16 147.25,51.25 147.25,50.72 							"/>
						</g>
						<g id="XMLID_1309_">
							<polygon id="XMLID_1310_" class="st9" points="153.92,50.67 150.56,52.63 147.25,50.72 150.61,48.76 							"/>
						</g>
					</g>
					<g class="st0">
						<g id="XMLID_1307_">
							<polygon id="XMLID_1308_" class="st12" points="158.17,53.12 158.16,53.66 154.8,55.61 154.8,55.08 							"/>
						</g>
						<g id="XMLID_1293_">
							<polygon id="XMLID_1306_" class="st12" points="154.8,55.08 154.8,55.61 151.48,53.7 151.49,53.16 							"/>
						</g>
						<g id="XMLID_1285_">
							<polygon id="XMLID_1291_" class="st9" points="158.17,53.12 154.8,55.08 151.49,53.16 154.85,51.21 							"/>
						</g>
					</g>
					<g class="st0">
						<g id="XMLID_581_">
							<polygon id="XMLID_712_" class="st12" points="162.4,55.57 162.4,56.1 159.04,58.06 159.04,57.52 							"/>
						</g>
						<g id="XMLID_66_">
							<polygon id="XMLID_67_" class="st12" points="159.04,57.52 159.04,58.06 155.73,56.15 155.73,55.61 							"/>
						</g>
						<g id="XMLID_68_">
							<polygon id="XMLID_69_" class="st9" points="162.4,55.57 159.04,57.52 155.73,55.61 159.09,53.66 							"/>
						</g>
					</g>
					<g class="st0">
						<g id="XMLID_70_">
							<polygon id="XMLID_71_" class="st12" points="166.64,58.02 166.64,58.55 163.27,60.5 163.28,59.97 							"/>
						</g>
						<g id="XMLID_72_">
							<polygon id="XMLID_73_" class="st12" points="163.28,59.97 163.27,60.5 159.97,58.59 159.97,58.06 							"/>
						</g>
						<g id="XMLID_74_">
							<polygon id="XMLID_75_" class="st9" points="166.64,58.02 163.28,59.97 159.97,58.06 163.33,56.11 							"/>
						</g>
					</g>
					<g class="st0">
						<g id="XMLID_76_">
							<polygon id="XMLID_77_" class="st12" points="170.87,60.46 170.87,61 167.51,62.95 167.51,62.42 							"/>
						</g>
						<g id="XMLID_78_">
							<polygon id="XMLID_79_" class="st12" points="167.51,62.42 167.51,62.95 164.2,61.04 164.2,60.51 							"/>
						</g>
						<g id="XMLID_80_">
							<polygon id="XMLID_81_" class="st9" points="170.87,60.46 167.51,62.42 164.2,60.51 167.57,58.55 							"/>
						</g>
					</g>
					<g class="st0">
						<g id="XMLID_82_">
							<polygon id="XMLID_83_" class="st12" points="175.12,62.91 175.12,63.45 171.76,65.4 171.76,64.87 							"/>
						</g>
						<g id="XMLID_84_">
							<polygon id="XMLID_85_" class="st12" points="171.76,64.87 171.76,65.4 168.45,63.49 168.45,62.96 							"/>
						</g>
						<g id="XMLID_86_">
							<polygon id="XMLID_87_" class="st9" points="175.12,62.91 171.76,64.87 168.45,62.96 171.81,61 							"/>
						</g>
					</g>
					<g class="st0">
						<g id="XMLID_88_">
							<polygon id="XMLID_89_" class="st12" points="179.36,65.36 179.35,65.89 175.99,67.85 175.99,67.31 							"/>
						</g>
						<g id="XMLID_90_">
							<polygon id="XMLID_91_" class="st12" points="175.99,67.31 175.99,67.85 172.68,65.94 172.68,65.4 							"/>
						</g>
						<g id="XMLID_92_">
							<polygon id="XMLID_93_" class="st9" points="179.36,65.36 175.99,67.31 172.68,65.4 176.05,63.45 							"/>
						</g>
					</g>
					<g class="st0">
						<g id="XMLID_94_">
							<polygon id="XMLID_95_" class="st12" points="183.59,67.8 183.59,68.34 180.23,70.29 180.23,69.76 							"/>
						</g>
						<g id="XMLID_96_">
							<polygon id="XMLID_97_" class="st12" points="180.23,69.76 180.23,70.29 176.92,68.38 176.92,67.85 							"/>
						</g>
						<g id="XMLID_98_">
							<polygon id="XMLID_99_" class="st9" points="183.59,67.8 180.23,69.76 176.92,67.85 180.28,65.89 							"/>
						</g>
					</g>
					<g class="st0">
						<g id="XMLID_100_">
							<polygon id="XMLID_101_" class="st12" points="187.84,70.26 187.84,70.79 184.47,72.74 184.48,72.21 							"/>
						</g>
						<g id="XMLID_102_">
							<polygon id="XMLID_103_" class="st12" points="184.48,72.21 184.47,72.74 181.16,70.83 181.16,70.29 							"/>
						</g>
						<g id="XMLID_104_">
							<polygon id="XMLID_105_" class="st9" points="187.84,70.26 184.48,72.21 181.16,70.29 184.52,68.34 							"/>
						</g>
					</g>
					<g class="st0">
						<g id="XMLID_106_">
							<polygon id="XMLID_107_" class="st12" points="192.07,72.7 192.07,73.23 188.71,75.19 188.71,74.66 							"/>
						</g>
						<g id="XMLID_108_">
							<polygon id="XMLID_109_" class="st12" points="188.71,74.66 188.71,75.19 185.4,73.28 185.4,72.74 							"/>
						</g>
						<g id="XMLID_110_">
							<polygon id="XMLID_111_" class="st9" points="192.07,72.7 188.71,74.66 185.4,72.74 188.76,70.79 							"/>
						</g>
					</g>
					<g class="st0">
						<g id="XMLID_112_">
							<polygon id="XMLID_153_" class="st12" points="200.55,77.6 200.55,78.13 197.19,80.09 197.19,79.55 							"/>
						</g>
						<g id="XMLID_154_">
							<polygon id="XMLID_155_" class="st12" points="197.19,79.55 197.19,80.09 189.64,75.72 189.64,75.19 							"/>
						</g>
						<g id="XMLID_156_">
							<polygon id="XMLID_157_" class="st9" points="200.55,77.6 197.19,79.55 189.64,75.19 193,73.24 							"/>
						</g>
					</g>
					<g class="st0">
						<g id="XMLID_158_">
							<polygon id="XMLID_159_" class="st12" points="153.88,55.61 153.88,56.15 150.53,58.1 150.53,57.56 							"/>
						</g>
						<g id="XMLID_160_">
							<polygon id="XMLID_161_" class="st12" points="150.53,57.56 150.53,58.1 142.97,53.74 142.97,53.2 							"/>
						</g>
						<g id="XMLID_162_">
							<polygon id="XMLID_163_" class="st9" points="153.88,55.61 150.53,57.56 142.97,53.2 146.33,51.25 							"/>
						</g>
					</g>
					<g class="st0">
						<g id="XMLID_164_">
							<polygon id="XMLID_165_" class="st12" points="158.12,58.06 158.12,58.59 154.76,60.54 154.76,60.01 							"/>
						</g>
						<g id="XMLID_166_">
							<polygon id="XMLID_167_" class="st12" points="154.76,60.01 154.76,60.54 151.45,58.63 151.46,58.1 							"/>
						</g>
						<g id="XMLID_168_">
							<polygon id="XMLID_187_" class="st9" points="158.12,58.06 154.76,60.01 151.46,58.1 154.81,56.15 							"/>
						</g>
					</g>
					<g class="st0">
						<g id="XMLID_222_">
							<polygon id="XMLID_226_" class="st12" points="162.35,60.51 162.35,61.04 159,62.99 159,62.45 							"/>
						</g>
						<g id="XMLID_237_">
							<polygon id="XMLID_238_" class="st12" points="159,62.45 159,62.99 155.69,61.08 155.69,60.54 							"/>
						</g>
						<g id="XMLID_239_">
							<polygon id="XMLID_240_" class="st9" points="162.35,60.51 159,62.45 155.69,60.54 159.05,58.6 							"/>
						</g>
					</g>
					<g class="st0">
						<g id="XMLID_241_">
							<polygon id="XMLID_242_" class="st12" points="166.59,62.95 166.59,63.49 163.24,65.43 163.24,64.9 							"/>
						</g>
						<g id="XMLID_243_">
							<polygon id="XMLID_244_" class="st12" points="163.24,64.9 163.24,65.43 159.93,63.52 159.93,62.99 							"/>
						</g>
						<g id="XMLID_245_">
							<polygon id="XMLID_246_" class="st9" points="166.59,62.95 163.24,64.9 159.93,62.99 163.28,61.04 							"/>
						</g>
					</g>
					<g class="st0">
						<g id="XMLID_247_">
							<polygon id="XMLID_248_" class="st12" points="170.84,65.4 170.83,65.94 167.48,67.88 167.48,67.35 							"/>
						</g>
						<g id="XMLID_249_">
							<polygon id="XMLID_250_" class="st12" points="167.48,67.35 167.48,67.88 164.17,65.97 164.17,65.44 							"/>
						</g>
						<g id="XMLID_251_">
							<polygon id="XMLID_252_" class="st9" points="170.84,65.4 167.48,67.35 164.17,65.44 167.53,63.49 							"/>
						</g>
					</g>
					<g class="st0">
						<g id="XMLID_253_">
							<polygon id="XMLID_254_" class="st12" points="175.07,67.85 175.07,68.38 171.72,70.33 171.72,69.8 							"/>
						</g>
						<g id="XMLID_255_">
							<polygon id="XMLID_256_" class="st12" points="171.72,69.8 171.72,70.33 168.41,68.42 168.41,67.89 							"/>
						</g>
						<g id="XMLID_257_">
							<polygon id="XMLID_258_" class="st9" points="175.07,67.85 171.72,69.8 168.41,67.89 171.76,65.94 							"/>
						</g>
					</g>
					<g class="st0">
						<g id="XMLID_259_">
							<polygon id="XMLID_260_" class="st12" points="179.31,70.29 179.31,70.83 175.95,72.78 175.95,72.24 							"/>
						</g>
						<g id="XMLID_261_">
							<polygon id="XMLID_262_" class="st12" points="175.95,72.24 175.95,72.78 172.64,70.87 172.65,70.33 							"/>
						</g>
						<g id="XMLID_263_">
							<polygon id="XMLID_264_" class="st9" points="179.31,70.29 175.95,72.24 172.65,70.33 176,68.38 							"/>
						</g>
					</g>
					<g class="st0">
						<g id="XMLID_265_">
							<polygon id="XMLID_266_" class="st12" points="183.55,72.74 183.55,73.28 180.2,75.23 180.2,74.69 							"/>
						</g>
						<g id="XMLID_267_">
							<polygon id="XMLID_268_" class="st12" points="180.2,74.69 180.2,75.23 176.88,73.31 176.88,72.78 							"/>
						</g>
						<g id="XMLID_269_">
							<polygon id="XMLID_270_" class="st9" points="183.55,72.74 180.2,74.69 176.88,72.78 180.24,70.83 							"/>
						</g>
					</g>
					<g class="st0">
						<g id="XMLID_271_">
							<polygon id="XMLID_272_" class="st12" points="187.79,75.19 187.79,75.72 184.43,77.67 184.44,77.14 							"/>
						</g>
						<g id="XMLID_273_">
							<polygon id="XMLID_274_" class="st12" points="184.44,77.14 184.43,77.67 181.13,75.76 181.13,75.23 							"/>
						</g>
						<g id="XMLID_275_">
							<polygon id="XMLID_276_" class="st9" points="187.79,75.19 184.44,77.14 181.13,75.23 184.48,73.28 							"/>
						</g>
					</g>
					<g class="st0">
						<g id="XMLID_277_">
							<polygon id="XMLID_278_" class="st12" points="192.03,77.64 192.03,78.17 188.67,80.12 188.67,79.59 							"/>
						</g>
						<g id="XMLID_279_">
							<polygon id="XMLID_280_" class="st12" points="188.67,79.59 188.67,80.12 185.36,78.21 185.36,77.68 							"/>
						</g>
						<g id="XMLID_281_">
							<polygon id="XMLID_282_" class="st9" points="192.03,77.64 188.67,79.59 185.36,77.68 188.72,75.73 							"/>
						</g>
					</g>
					<g class="st0">
						<g id="XMLID_283_">
							<polygon id="XMLID_284_" class="st12" points="196.27,80.09 196.27,80.62 192.92,82.57 192.92,82.04 							"/>
						</g>
						<g id="XMLID_285_">
							<polygon id="XMLID_286_" class="st12" points="192.92,82.04 192.92,82.57 189.6,80.65 189.6,80.12 							"/>
						</g>
						<g id="XMLID_287_">
							<polygon id="XMLID_288_" class="st9" points="196.27,80.09 192.92,82.04 189.6,80.12 192.95,78.17 							"/>
						</g>
					</g>
					<g class="st0">
						<g id="XMLID_289_">
							<polygon id="XMLID_290_" class="st12" points="149.61,58.1 149.6,58.63 146.25,60.58 146.25,60.05 							"/>
						</g>
						<g id="XMLID_291_">
							<polygon id="XMLID_292_" class="st12" points="146.25,60.05 146.25,60.58 138.7,56.22 138.7,55.69 							"/>
						</g>
						<g id="XMLID_293_">
							<polygon id="XMLID_294_" class="st9" points="149.61,58.1 146.25,60.05 138.7,55.69 142.05,53.74 							"/>
						</g>
					</g>
					<g class="st0">
						<g id="XMLID_295_">
							<polygon id="XMLID_296_" class="st12" points="153.84,60.54 153.84,61.08 150.49,63.03 150.49,62.49 							"/>
						</g>
						<g id="XMLID_297_">
							<polygon id="XMLID_298_" class="st12" points="150.49,62.49 150.49,63.03 147.18,61.12 147.18,60.58 							"/>
						</g>
						<g id="XMLID_299_">
							<polygon id="XMLID_300_" class="st9" points="153.84,60.54 150.49,62.49 147.18,60.58 150.53,58.63 							"/>
						</g>
					</g>
					<g class="st0">
						<g id="XMLID_301_">
							<polygon id="XMLID_302_" class="st12" points="158.08,62.99 158.08,63.52 154.72,65.47 154.73,64.94 							"/>
						</g>
						<g id="XMLID_303_">
							<polygon id="XMLID_304_" class="st12" points="154.73,64.94 154.72,65.47 151.41,63.56 151.42,63.03 							"/>
						</g>
						<g id="XMLID_305_">
							<polygon id="XMLID_306_" class="st9" points="158.08,62.99 154.73,64.94 151.42,63.03 154.77,61.08 							"/>
						</g>
					</g>
					<g class="st0">
						<g id="XMLID_307_">
							<polygon id="XMLID_308_" class="st12" points="162.32,65.44 162.31,65.97 158.96,67.92 158.96,67.39 							"/>
						</g>
						<g id="XMLID_309_">
							<polygon id="XMLID_310_" class="st12" points="158.96,67.39 158.96,67.92 155.65,66.01 155.65,65.47 							"/>
						</g>
						<g id="XMLID_311_">
							<polygon id="XMLID_312_" class="st9" points="162.32,65.44 158.96,67.39 155.65,65.47 159.01,63.53 							"/>
						</g>
					</g>
					<g class="st0">
						<g id="XMLID_313_">
							<polygon id="XMLID_314_" class="st12" points="166.56,67.89 166.56,68.42 163.21,70.37 163.21,69.84 							"/>
						</g>
						<g id="XMLID_315_">
							<polygon id="XMLID_316_" class="st12" points="163.21,69.84 163.21,70.37 159.9,68.46 159.9,67.93 							"/>
						</g>
						<g id="XMLID_317_">
							<polygon id="XMLID_318_" class="st9" points="166.56,67.89 163.21,69.84 159.9,67.93 163.25,65.98 							"/>
						</g>
					</g>
					<g class="st0">
						<g id="XMLID_64_">
							<polygon id="XMLID_65_" class="st12" points="170.8,70.33 170.8,70.87 167.44,72.82 167.44,72.28 							"/>
						</g>
						<g id="XMLID_62_">
							<polygon id="XMLID_63_" class="st12" points="167.44,72.28 167.44,72.82 164.13,70.9 164.13,70.37 							"/>
						</g>
						<g id="XMLID_60_">
							<polygon id="XMLID_61_" class="st9" points="170.8,70.33 167.44,72.28 164.13,70.37 167.49,68.42 							"/>
						</g>
					</g>
					<g class="st0">
						<g id="XMLID_58_">
							<polygon id="XMLID_59_" class="st12" points="175.03,72.78 175.03,73.31 171.68,75.26 171.68,74.73 							"/>
						</g>
						<g id="XMLID_56_">
							<polygon id="XMLID_57_" class="st12" points="171.68,74.73 171.68,75.26 168.37,73.35 168.37,72.82 							"/>
						</g>
						<g id="XMLID_54_">
							<polygon id="XMLID_55_" class="st9" points="175.03,72.78 171.68,74.73 168.37,72.82 171.72,70.87 							"/>
						</g>
					</g>
					<g class="st0">
						<g id="XMLID_52_">
							<polygon id="XMLID_53_" class="st12" points="179.28,75.23 179.28,75.76 175.92,77.71 175.92,77.18 							"/>
						</g>
						<g id="XMLID_49_">
							<polygon id="XMLID_50_" class="st12" points="175.92,77.18 175.92,77.71 172.61,75.8 172.61,75.26 							"/>
						</g>
						<g id="XMLID_46_">
							<polygon id="XMLID_47_" class="st9" points="179.28,75.23 175.92,77.18 172.61,75.26 175.96,73.31 							"/>
						</g>
					</g>
					<g class="st0">
						<g id="XMLID_44_">
							<polygon id="XMLID_45_" class="st12" points="183.51,77.68 183.51,78.21 180.16,80.16 180.16,79.62 							"/>
						</g>
						<g id="XMLID_42_">
							<polygon id="XMLID_43_" class="st12" points="180.16,79.62 180.16,80.16 176.85,78.25 176.85,77.71 							"/>
						</g>
						<g id="XMLID_40_">
							<polygon id="XMLID_41_" class="st9" points="183.51,77.68 180.16,79.62 176.85,77.71 180.21,75.76 							"/>
						</g>
					</g>
					<g class="st0">
						<g id="XMLID_37_">
							<polygon id="XMLID_38_" class="st12" points="192,82.57 191.99,83.11 188.64,85.05 188.64,84.52 							"/>
						</g>
						<g id="XMLID_35_">
							<polygon id="XMLID_36_" class="st12" points="188.64,84.52 188.64,85.05 181.09,80.69 181.09,80.16 							"/>
						</g>
						<g id="XMLID_347_">
							<polygon id="XMLID_348_" class="st9" points="192,82.57 188.64,84.52 181.09,80.16 184.44,78.21 							"/>
						</g>
					</g>
					<g class="st0">
						<g id="XMLID_349_">
							<polygon id="XMLID_350_" class="st12" points="149.57,63.03 149.57,63.56 146.21,65.51 146.21,64.98 							"/>
						</g>
						<g id="XMLID_351_">
							<polygon id="XMLID_352_" class="st12" points="146.21,64.98 146.21,65.51 134.42,58.7 134.42,58.17 							"/>
						</g>
						<g id="XMLID_353_">
							<polygon id="XMLID_354_" class="st9" points="149.57,63.03 146.21,64.98 134.42,58.17 137.78,56.22 							"/>
						</g>
					</g>
					<g class="st0">
						<g id="XMLID_355_">
							<polygon id="XMLID_356_" class="st12" points="153.8,65.47 153.8,66.01 150.45,67.96 150.45,67.42 							"/>
						</g>
						<g id="XMLID_357_">
							<polygon id="XMLID_358_" class="st12" points="150.45,67.42 150.45,67.96 147.14,66.05 147.14,65.51 							"/>
						</g>
						<g id="XMLID_359_">
							<polygon id="XMLID_360_" class="st9" points="153.8,65.47 150.45,67.42 147.14,65.51 150.5,63.56 							"/>
						</g>
					</g>
					<g class="st0">
						<g id="XMLID_361_">
							<polygon id="XMLID_362_" class="st12" points="158.04,67.92 158.04,68.45 154.69,70.4 154.69,69.87 							"/>
						</g>
						<g id="XMLID_363_">
							<polygon id="XMLID_364_" class="st12" points="154.69,69.87 154.69,70.4 151.38,68.49 151.38,67.96 							"/>
						</g>
						<g id="XMLID_365_">
							<polygon id="XMLID_366_" class="st9" points="158.04,67.92 154.69,69.87 151.38,67.96 154.73,66.01 							"/>
						</g>
					</g>
					<g class="st0">
						<g id="XMLID_367_">
							<polygon id="XMLID_368_" class="st12" points="162.29,70.37 162.28,70.9 158.93,72.85 158.93,72.32 							"/>
						</g>
						<g id="XMLID_369_">
							<polygon id="XMLID_370_" class="st12" points="158.93,72.32 158.93,72.85 155.62,70.94 155.62,70.41 							"/>
						</g>
						<g id="XMLID_371_">
							<polygon id="XMLID_372_" class="st9" points="162.29,70.37 158.93,72.32 155.62,70.41 158.98,68.46 							"/>
						</g>
					</g>
					<g class="st0">
						<g id="XMLID_373_">
							<polygon id="XMLID_374_" class="st12" points="166.52,72.82 166.52,73.35 163.17,75.3 163.17,74.77 							"/>
						</g>
						<g id="XMLID_375_">
							<polygon id="XMLID_376_" class="st12" points="163.17,74.77 163.17,75.3 159.86,73.39 159.86,72.86 							"/>
						</g>
						<g id="XMLID_377_">
							<polygon id="XMLID_378_" class="st9" points="166.52,72.82 163.17,74.77 159.86,72.86 163.21,70.91 							"/>
						</g>
					</g>
					<g class="st0">
						<g id="XMLID_379_">
							<polygon id="XMLID_380_" class="st12" points="170.76,75.26 170.76,75.8 167.4,77.75 167.4,77.21 							"/>
						</g>
						<g id="XMLID_381_">
							<polygon id="XMLID_382_" class="st12" points="167.4,77.21 167.4,77.75 164.09,75.84 164.1,75.3 							"/>
						</g>
						<g id="XMLID_383_">
							<polygon id="XMLID_384_" class="st9" points="170.76,75.26 167.4,77.21 164.1,75.3 167.45,73.35 							"/>
						</g>
					</g>
					<g class="st0">
						<g id="XMLID_385_">
							<polygon id="XMLID_386_" class="st12" points="175,77.71 175,78.25 171.65,80.2 171.65,79.66 							"/>
						</g>
						<g id="XMLID_387_">
							<polygon id="XMLID_388_" class="st12" points="171.65,79.66 171.65,80.2 168.33,78.28 168.33,77.75 							"/>
						</g>
						<g id="XMLID_389_">
							<polygon id="XMLID_390_" class="st9" points="175,77.71 171.65,79.66 168.33,77.75 171.69,75.8 							"/>
						</g>
					</g>
					<g class="st0">
						<g id="XMLID_391_">
							<polygon id="XMLID_392_" class="st12" points="179.24,80.16 179.24,80.69 175.88,82.64 175.89,82.11 							"/>
						</g>
						<g id="XMLID_393_">
							<polygon id="XMLID_394_" class="st12" points="175.89,82.11 175.88,82.64 172.58,80.73 172.58,80.2 							"/>
						</g>
						<g id="XMLID_395_">
							<polygon id="XMLID_396_" class="st9" points="179.24,80.16 175.89,82.11 172.58,80.2 175.93,78.25 							"/>
						</g>
					</g>
					<g class="st0">
						<g id="XMLID_397_">
							<polygon id="XMLID_398_" class="st12" points="187.72,85.06 187.72,85.59 184.37,87.54 184.37,87.01 							"/>
						</g>
						<g id="XMLID_399_">
							<polygon id="XMLID_400_" class="st12" points="184.37,87.01 184.37,87.54 176.81,83.18 176.81,82.64 							"/>
						</g>
						<g id="XMLID_401_">
							<polygon id="XMLID_402_" class="st9" points="187.72,85.06 184.37,87.01 176.81,82.64 180.17,80.7 							"/>
						</g>
					</g>
					<g class="st0">
						<g id="XMLID_403_">
							<polygon id="XMLID_404_" class="st12" points="136.81,60.62 136.81,61.15 133.45,63.1 133.45,62.57 							"/>
						</g>
						<g id="XMLID_405_">
							<polygon id="XMLID_406_" class="st12" points="133.45,62.57 133.45,63.1 130.14,61.19 130.14,60.66 							"/>
						</g>
						<g id="XMLID_407_">
							<polygon id="XMLID_408_" class="st9" points="136.81,60.62 133.45,62.57 130.14,60.66 133.5,58.71 							"/>
						</g>
					</g>
					<g class="st0">
						<g id="XMLID_409_">
							<polygon id="XMLID_410_" class="st12" points="141.06,63.07 141.05,63.6 137.69,65.55 137.69,65.02 							"/>
						</g>
						<g id="XMLID_411_">
							<polygon id="XMLID_412_" class="st12" points="137.69,65.02 137.69,65.55 134.37,63.64 134.38,63.11 							"/>
						</g>
						<g id="XMLID_413_">
							<polygon id="XMLID_414_" class="st9" points="141.06,63.07 137.69,65.02 134.38,63.11 137.74,61.15 							"/>
						</g>
					</g>
					<g class="st0">
						<g id="XMLID_415_">
							<polygon id="XMLID_416_" class="st12" points="145.29,65.51 145.29,66.05 141.93,68 141.93,67.47 							"/>
						</g>
						<g id="XMLID_417_">
							<polygon id="XMLID_418_" class="st12" points="141.93,67.47 141.93,68 138.62,66.09 138.62,65.56 							"/>
						</g>
						<g id="XMLID_419_">
							<polygon id="XMLID_420_" class="st9" points="145.29,65.51 141.93,67.47 138.62,65.56 141.98,63.6 							"/>
						</g>
					</g>
					<g class="st0">
						<g id="XMLID_421_">
							<polygon id="XMLID_422_" class="st12" points="166.48,77.75 166.48,78.28 163.12,80.24 163.12,79.7 							"/>
						</g>
						<g id="XMLID_423_">
							<polygon id="XMLID_424_" class="st12" points="163.12,79.7 163.12,80.24 142.86,68.54 142.86,68 							"/>
						</g>
						<g id="XMLID_425_">
							<polygon id="XMLID_426_" class="st9" points="166.48,77.75 163.12,79.7 142.86,68 146.22,66.05 							"/>
						</g>
					</g>
					<g class="st0">
						<g id="XMLID_427_">
							<polygon id="XMLID_428_" class="st12" points="170.73,80.2 170.73,80.73 167.36,82.69 167.37,82.15 							"/>
						</g>
						<g id="XMLID_429_">
							<polygon id="XMLID_430_" class="st12" points="167.37,82.15 167.36,82.69 164.05,80.77 164.05,80.24 							"/>
						</g>
						<g id="XMLID_431_">
							<polygon id="XMLID_432_" class="st9" points="170.73,80.2 167.37,82.15 164.05,80.24 167.41,78.28 							"/>
						</g>
					</g>
					<g class="st0">
						<g id="XMLID_433_">
							<polygon id="XMLID_434_" class="st12" points="174.96,82.64 174.96,83.18 171.6,85.13 171.6,84.6 							"/>
						</g>
						<g id="XMLID_435_">
							<polygon id="XMLID_436_" class="st12" points="171.6,84.6 171.6,85.13 168.29,83.22 168.29,82.69 							"/>
						</g>
						<g id="XMLID_437_">
							<polygon id="XMLID_438_" class="st9" points="174.96,82.64 171.6,84.6 168.29,82.69 171.66,80.73 							"/>
						</g>
					</g>
					<g class="st0">
						<g id="XMLID_439_">
							<polygon id="XMLID_440_" class="st12" points="183.45,87.54 183.44,88.07 180.08,90.03 180.08,89.5 							"/>
						</g>
						<g id="XMLID_441_">
							<polygon id="XMLID_442_" class="st12" points="180.08,89.5 180.08,90.03 172.53,85.67 172.53,85.13 							"/>
						</g>
						<g id="XMLID_443_">
							<polygon id="XMLID_444_" class="st9" points="183.45,87.54 180.08,89.5 172.53,85.13 175.89,83.18 							"/>
						</g>
					</g>
				</g>
			</g>
		</g>
		<g id="XMLID_51_">
			<polygon class="st13" points="159.25,41.55 197.9,63.86 197.9,36.03 197.9,36.03 159.25,13.71 			"/>
			<polygon class="st1" points="195.3,38.68 181.48,30.7 181.48,50.1 195.3,58.08 			"/>
			<g id="XMLID_445_">
				<polygon class="st10" points="163.09,21.22 178.58,30.16 178.58,29.02 163.09,20.08 				"/>
				<polygon class="st10" points="163.09,23.85 178.58,32.79 178.58,31.65 163.09,22.71 				"/>
				<polygon class="st10" points="163.09,26.47 178.58,35.42 178.58,34.28 163.09,25.34 				"/>
				<polygon class="st10" points="163.09,29.1 178.58,38.04 178.58,36.9 163.09,27.96 				"/>
				<polygon class="st10" points="163.09,31.73 178.58,40.67 178.58,39.53 163.09,30.59 				"/>
				<polygon class="st10" points="163.09,34.36 178.58,43.3 178.58,42.16 163.09,33.22 				"/>
				<polygon class="st10" points="163.09,39.61 173.87,45.84 173.87,44.7 163.09,38.47 				"/>
				<polygon class="st10" points="163.09,36.98 178.58,45.93 178.58,44.79 163.09,35.85 				"/>
			</g>
			<g>
				<polygon class="st14" points="187.23,35.76 183.15,41.57 191.31,46.28 				"/>
				<path class="st1" d="M191.85,46.91l-9.1-5.25l4.55-6.47L191.85,46.91z M183.54,41.48l7.23,4.18l-3.62-9.32L183.54,41.48z"/>
			</g>
			<g>
				<polygon class="st14" points="190.5,39.35 186.42,45.16 194.58,49.88 				"/>
				<path class="st1" d="M195.12,50.5l-9.1-5.25l4.55-6.47L195.12,50.5z M186.81,45.07l7.23,4.18l-3.62-9.32L186.81,45.07z"/>
			</g>
			<g>
				<path class="st14" d="M193.68,51.27c0,2.03-1.43,2.85-3.18,1.84c-1.76-1.01-3.18-3.48-3.18-5.51c0-2.03,1.43-2.85,3.18-1.84
					C192.26,46.77,193.68,49.24,193.68,51.27z"/>
				<path class="st1" d="M191.92,53.81c-0.48,0-1.01-0.16-1.56-0.47c-1.83-1.06-3.32-3.64-3.32-5.75c0-1.08,0.38-1.9,1.07-2.3
					c0.69-0.4,1.59-0.32,2.52,0.22c1.83,1.06,3.32,3.64,3.32,5.75c0,1.08-0.38,1.9-1.07,2.3C192.6,53.73,192.27,53.81,191.92,53.81z
					 M189.08,45.59c-0.26,0-0.49,0.06-0.69,0.18c-0.51,0.3-0.8,0.94-0.8,1.82c0,1.94,1.37,4.31,3.05,5.28
					c0.76,0.44,1.46,0.52,1.98,0.22c0.51-0.3,0.79-0.94,0.79-1.82c0-1.94-1.37-4.31-3.05-5.28
					C189.9,45.73,189.46,45.59,189.08,45.59z"/>
			</g>
		</g>
	</g>
	<g id="XMLID_446_">
		<path id="XMLID_447_" class="st11" d="M43.2,166.33l-5.38-3.13c-0.65-0.38-1.05-1.18-1.05-2.31l5.38,3.13
			C42.15,165.15,42.55,165.95,43.2,166.33z"/>
		<g id="XMLID_448_">
			<path id="XMLID_449_" class="st8" d="M71.35,54.63l5.38,3.13c-0.66-0.38-1.56-0.33-2.56,0.25l-5.38-3.13
				C69.78,54.3,70.69,54.25,71.35,54.63z"/>
			<g id="XMLID_450_">
				<polygon id="XMLID_451_" class="st11" points="37.1,160.7 36.93,78.2 41.63,80.93 41.81,163.44 				"/>
				<path id="XMLID_452_" class="st8" d="M37.26,78.78l4.03,2.34l0.17,81.73l-4.03-2.34L37.26,78.78 M36.59,77.61l0.18,83.28
					l5.38,3.13l-0.18-83.28L36.59,77.61L36.59,77.61z"/>
			</g>
			<polygon id="XMLID_455_" class="st8" points="45.56,74.51 40.18,71.39 68.78,54.88 74.16,58 			"/>
			<path id="XMLID_456_" class="st8" d="M41.97,80.74l-5.38-3.13c-0.01-2.29,1.6-5.08,3.59-6.22l5.38,3.13
				C43.57,75.66,41.96,78.45,41.97,80.74z"/>
			<path id="XMLID_457_" class="st15" d="M74.16,58c1.99-1.15,3.61-0.22,3.62,2.06l0.18,83.28c0.01,2.29-1.6,5.08-3.59,6.22
				l-28.6,16.51c-1.99,1.15-3.61,0.22-3.62-2.06l-0.18-83.28c-0.01-2.29,1.6-5.08,3.59-6.22L74.16,58z"/>
			<polygon class="st10" points="76,68.31 43.79,86.91 43.92,152.49 76.13,133.89 			"/>
			<g id="XMLID_458_">
				<g class="st0">
					<g id="XMLID_460_">
						<path id="XMLID_461_" class="st14" d="M62.34,145.06c-1.99,1.15-3.6,3.94-3.59,6.22c0.01,2.3,1.63,3.22,3.62,2.07
							c2-1.15,3.61-3.94,3.6-6.24C65.96,144.83,64.34,143.91,62.34,145.06"/>
					</g>
				</g>
			</g>
			<g id="XMLID_459_">
				<g class="st0">
					<g id="XMLID_463_">
						<path id="XMLID_464_" class="st16" d="M60.43,68.03c-0.42,0.24-0.77,0.84-0.77,1.33c0,0.49,0.35,0.68,0.77,0.44
							c0.43-0.25,0.77-0.85,0.77-1.33C61.2,67.98,60.86,67.78,60.43,68.03"/>
						<path id="XMLID_465_" class="st16" d="M63.64,69.45l-6.4,3.69c-0.39,0.22-0.71,0.76-0.7,1.21c0,0.45,0.32,0.63,0.71,0.4
							l6.4-3.69c0.39-0.22,0.71-0.77,0.7-1.22C64.34,69.4,64.03,69.22,63.64,69.45"/>
					</g>
				</g>
			</g>
			<g id="XMLID_462_">
				<g class="st0">
					<g id="XMLID_467_">
						<path id="XMLID_468_" class="st17" d="M38.25,94.98l0.9-0.52c0.17-0.1,0.41-0.09,0.68,0.07l-0.9,0.52
							C38.66,94.9,38.42,94.88,38.25,94.98z"/>
					</g>
					<g id="XMLID_469_">
						<path id="XMLID_470_" class="st17" d="M40.5,96.78l-0.9,0.52c0.17-0.1,0.28-0.31,0.28-0.61c0-0.61-0.43-1.34-0.95-1.64
							l0.9-0.52c0.53,0.3,0.96,1.04,0.96,1.64C40.78,96.47,40.67,96.68,40.5,96.78z"/>
					</g>
					<g id="XMLID_471_">
						<path id="XMLID_472_" class="st8" d="M38.93,95.05c0.53,0.3,0.96,1.04,0.95,1.64c0,0.61-0.43,0.84-0.96,0.54
							c-0.52-0.3-0.95-1.03-0.95-1.64C37.97,94.98,38.41,94.75,38.93,95.05z"/>
					</g>
				</g>
				<g class="st0">
					<g id="XMLID_473_">
						<path id="XMLID_474_" class="st17" d="M38.24,99.84l0.9-0.52c0.17-0.1,0.41-0.09,0.67,0.06l-0.9,0.52
							C38.65,99.75,38.41,99.74,38.24,99.84z"/>
					</g>
					<g id="XMLID_475_">
						<path id="XMLID_476_" class="st17" d="M40.48,101.64l-0.9,0.52c0.17-0.1,0.28-0.31,0.28-0.61c0-0.6-0.43-1.34-0.96-1.64
							l0.9-0.52c0.53,0.3,0.96,1.05,0.95,1.64C40.76,101.32,40.66,101.54,40.48,101.64z"/>
					</g>
					<g id="XMLID_477_">
						<path id="XMLID_478_" class="st8" d="M38.91,99.9c0.53,0.3,0.96,1.05,0.96,1.64c0,0.61-0.43,0.85-0.96,0.55
							c-0.52-0.3-0.95-1.04-0.95-1.65C37.96,99.85,38.39,99.6,38.91,99.9z"/>
					</g>
				</g>
				<g class="st0">
					<g id="XMLID_479_">
						<path id="XMLID_480_" class="st17" d="M40.24,91.76l-0.9,0.52c0.1-0.06,0.17-0.19,0.17-0.37l0.9-0.52
							C40.41,91.57,40.34,91.7,40.24,91.76z"/>
					</g>
					<g id="XMLID_481_">
						<polygon id="XMLID_482_" class="st17" points="39.52,87.79 40.42,87.26 40.41,91.39 39.51,91.91 						"/>
					</g>
					<g id="XMLID_483_">
						<path id="XMLID_484_" class="st17" d="M38.55,86.75l0.9-0.52c0.1-0.06,0.24-0.05,0.4,0.04l-0.9,0.52
							C38.79,86.7,38.65,86.69,38.55,86.75z"/>
					</g>
					<g id="XMLID_485_">
						<path id="XMLID_486_" class="st17" d="M38.95,86.79l0.9-0.52c0.32,0.18,0.58,0.63,0.57,1l-0.9,0.52
							C39.53,87.42,39.27,86.97,38.95,86.79z"/>
					</g>
					<g id="XMLID_487_">
						<path id="XMLID_488_" class="st8" d="M38.95,86.79c0.32,0.18,0.58,0.63,0.57,1l-0.01,4.12c0,0.36-0.26,0.51-0.58,0.33
							c-0.32-0.18-0.57-0.63-0.57-0.99l0.01-4.12C38.38,86.76,38.63,86.61,38.95,86.79z"/>
					</g>
				</g>
			</g>
		</g>
		<g id="XMLID_466_">
			<g id="XMLID_489_">
				<polygon class="st14" points="49.69,93.15 49.72,103.64 65.3,94.65 65.27,84.16 				"/>
			</g>
			<g id="XMLID_490_">
				<path class="st4" d="M63.19,80.67c-0.55,0.32-1,1.1-1,1.73c0,0.64,0.45,0.89,1.01,0.57l2.88-1.66c0.55-0.32,1-1.09,0.99-1.72
					c0-0.64-0.45-0.89-1-0.58L63.19,80.67z"/>
			</g>
			<g id="XMLID_491_">
				<g id="XMLID_499_">
					<path id="XMLID_500_" class="st13" d="M68.25,96.32l-21.46,12.39l-0.06-19.68l21.46-12.39L68.25,96.32z M49.72,103.64
						l15.58-8.99l-0.03-10.49l-15.58,8.99L49.72,103.64 M67.08,79.59c0-0.64-0.45-0.89-1-0.58l-2.88,1.66c-0.55,0.32-1,1.1-1,1.73
						c0,0.64,0.45,0.89,1.01,0.57l2.88-1.66C66.63,80.99,67.08,80.22,67.08,79.59"/>
				</g>
			</g>
		</g>
		<path class="st13" d="M65.32,102.1l-10.76,6.21l0,0.68l10.76-6.21L65.32,102.1z M65.33,104.23l-10.76,6.21l0,0.68l10.76-6.21
			L65.33,104.23z M65.32,99.97l-10.76,6.21l0,0.68l10.76-6.21L65.32,99.97z M65.33,106.37l-10.76,6.21l0,0.68l10.76-6.21
			L65.33,106.37z M65.35,112.77l-8.03,4.64l0,0.68l8.03-4.64L65.35,112.77z M65.34,108.5l-10.76,6.21l0,0.68l10.76-6.21L65.34,108.5
			z M65.35,110.63l-10.76,6.21l0,0.68l10.76-6.21L65.35,110.63z"/>
	</g>
	<g id="XMLID_501_">
		<polygon id="XMLID_502_" class="st18" points="135.74,189.09 134.98,188.65 159.82,196.37 160.58,196.81 		"/>
		<polygon id="XMLID_503_" class="st19" points="92.88,191.64 92.12,191.19 116.96,199.05 117.72,199.49 		"/>
		<polygon id="XMLID_504_" class="st19" points="135.74,189.09 134.98,188.65 159.69,152.18 160.46,152.62 		"/>
		<polygon id="XMLID_505_" class="st2" points="135.74,189.09 160.46,152.62 160.58,196.81 		"/>
		<polygon id="XMLID_506_" class="st18" points="126.75,202.35 125.99,201.91 134.98,188.65 135.74,189.09 		"/>
		<polygon id="XMLID_507_" class="st18" points="117.72,199.49 116.96,199.05 125.99,201.91 126.75,202.35 		"/>
		<polygon id="XMLID_508_" class="st18" points="93.01,235.83 92.24,235.39 116.96,199.05 117.72,199.49 		"/>
		<polygon id="XMLID_509_" class="st1" points="135.74,189.09 160.58,196.81 93.01,235.83 117.72,199.49 126.75,202.35 		"/>
		<polygon id="XMLID_510_" class="st2" points="92.88,191.64 117.72,199.49 93.01,235.83 		"/>
		<polygon id="XMLID_511_" class="st3" points="160.46,152.62 135.74,189.09 126.75,202.35 117.72,199.49 92.88,191.64 		"/>
		<polygon id="XMLID_512_" class="st3" points="93.01,235.83 92.24,235.39 92.12,191.19 92.88,191.64 		"/>
		<polygon id="XMLID_513_" class="st1" points="92.88,191.64 92.12,191.19 159.69,152.18 160.46,152.62 		"/>
	</g>
	<g id="XMLID_514_">
		<g id="XMLID_1467_">
			<path class="st14" d="M195.02,199.05c-0.75,0-1.42-0.54-1.55-1.31l-12.69-75.76c-0.14-0.86,0.44-1.67,1.29-1.81
				c0.86-0.14,1.67,0.43,1.81,1.29l12.69,75.76c0.14,0.86-0.44,1.67-1.29,1.81C195.19,199.04,195.11,199.05,195.02,199.05z"/>
		</g>
		<g id="XMLID_1466_">
			<path class="st14" d="M216.74,186.51c-0.75,0-1.42-0.54-1.55-1.31l-12.69-75.76c-0.14-0.86,0.44-1.67,1.29-1.81
				c0.85-0.14,1.67,0.43,1.81,1.29l12.69,75.76c0.14,0.86-0.44,1.67-1.29,1.81C216.91,186.5,216.83,186.51,216.74,186.51z"/>
		</g>
		<g id="XMLID_515_">
			<g id="XMLID_1465_">
				<path class="st14" d="M184.04,133.47c-0.54,0-1.07-0.28-1.36-0.79c-0.43-0.75-0.18-1.71,0.58-2.15L204.98,118
					c0.75-0.43,1.71-0.18,2.15,0.58c0.43,0.75,0.18,1.71-0.58,2.15l-21.72,12.54C184.58,133.41,184.31,133.47,184.04,133.47z"/>
			</g>
			<g id="XMLID_1464_">
				<path class="st14" d="M186.36,147.32c-0.54,0-1.07-0.28-1.36-0.79c-0.43-0.75-0.18-1.71,0.58-2.15l21.72-12.54
					c0.75-0.43,1.71-0.18,2.15,0.58c0.43,0.75,0.18,1.71-0.58,2.15l-21.72,12.54C186.9,147.25,186.63,147.32,186.36,147.32z"/>
			</g>
			<g id="XMLID_1463_">
				<path class="st14" d="M188.68,161.17c-0.54,0-1.07-0.28-1.36-0.79c-0.43-0.75-0.18-1.71,0.58-2.15l21.72-12.54
					c0.75-0.43,1.71-0.18,2.15,0.58c0.43,0.75,0.18,1.71-0.58,2.15l-21.72,12.54C189.22,161.1,188.95,161.17,188.68,161.17z"/>
			</g>
			<g id="XMLID_1462_">
				<path class="st14" d="M191,175.01c-0.54,0-1.07-0.28-1.36-0.79c-0.43-0.75-0.18-1.71,0.58-2.15l21.72-12.54
					c0.75-0.43,1.71-0.18,2.15,0.58c0.43,0.75,0.18,1.71-0.58,2.15l-21.72,12.54C191.54,174.94,191.26,175.01,191,175.01z"/>
			</g>
			<g id="XMLID_1461_">
				<path class="st14" d="M193.32,188.86c-0.54,0-1.07-0.28-1.36-0.79c-0.43-0.75-0.18-1.71,0.58-2.15l21.72-12.54
					c0.75-0.43,1.71-0.18,2.15,0.58c0.43,0.75,0.18,1.71-0.58,2.15l-21.72,12.54C193.85,188.79,193.58,188.86,193.32,188.86z"/>
			</g>
		</g>
	</g>
	<g id="XMLID_518_">
		<g id="XMLID_548_">
			<g class="st0">
				<g id="XMLID_550_">
					<polygon id="XMLID_1300_" class="st20" points="306.43,204.35 332.37,189.27 332.35,193.17 306.42,208.25 					"/>
				</g>
				<g id="XMLID_551_">
					<polygon class="st21" points="274.97,186.19 300.91,171.11 332.37,189.27 306.43,204.35 					"/>
				</g>
				<g id="XMLID_552_">
					<polygon class="st9" points="306.43,204.35 306.42,208.25 274.96,190.08 274.97,186.19 					"/>
				</g>
			</g>
		</g>
		<g id="XMLID_549_">
			<g class="st0">
				<g id="XMLID_554_">
					<polygon class="st20" points="308.5,177.4 311.75,175.52 311.7,191.13 308.46,193.01 					"/>
				</g>
				<g id="XMLID_555_">
					<polygon class="st9" points="308.5,177.4 308.46,193.01 295.4,185.47 295.45,169.86 					"/>
				</g>
				<g id="XMLID_556_">
					<polygon class="st22" points="295.45,169.86 298.69,167.98 311.75,175.52 308.5,177.4 					"/>
				</g>
				<g id="XMLID_557_">
					<polygon class="st21" points="248.73,64.49 251.97,62.6 358.8,124.28 355.56,126.17 					"/>
				</g>
				<g id="XMLID_558_">
					<polygon class="st21" points="355.56,126.17 358.8,124.28 358.63,202.58 355.38,204.47 					"/>
				</g>
				<g id="XMLID_559_">
					<polygon class="st9" points="355.56,126.17 355.38,204.47 308.5,177.4 295.45,169.86 248.55,142.79 248.73,64.49 					"/>
					<polygon class="st10" points="253.16,134.19 253.31,72.44 350.95,128.82 350.81,190.57 					"/>
				</g>
			</g>
		</g>
		<g id="XMLID_553_">
			<g class="st0">
				<g id="XMLID_562_">
					<path class="st20" d="M305.47,168.65l-5.68-3.28c-1.07-0.62-1.94-0.12-1.94,1.11c0,1.23,0.86,2.73,1.93,3.35l5.68,3.28
						c1.07,0.62,1.94,0.12,1.94-1.11C307.41,170.76,306.54,169.27,305.47,168.65"/>
				</g>
			</g>
		</g>
		<g id="XMLID_561_">
			<g id="XMLID_563_">
				<polygon class="st4" points="302.64,122.99 302.58,144.2 284.12,133.54 284.18,112.33 				"/>
			</g>
			<g class="st0">
				<g id="XMLID_572_">
					<path class="st9" d="M286.78,105.23c0.35,0.2,0.64,0.69,0.64,1.1c0,0.4-0.29,0.57-0.64,0.37c-0.36-0.21-0.64-0.7-0.64-1.1
						C286.14,105.19,286.43,105.03,286.78,105.23z"/>
				</g>
				<g id="XMLID_573_">
					<path id="XMLID_574_" class="st13" d="M323.26,125.12c0.67,0.39,1.22,1.33,1.22,2.11l-0.02,5.77c0-0.71-0.5-1.58-1.11-1.94
						l-42.5-24.54c-0.62-0.36-1.12-0.07-1.12,0.64l0.02-5.77c0-0.78,0.55-1.09,1.23-0.7L323.26,125.12z M284.2,105.21
						c0.35,0.2,0.64,0.04,0.64-0.37c0-0.41-0.28-0.9-0.64-1.1c-0.36-0.21-0.64-0.05-0.64,0.36
						C283.56,104.51,283.84,105.01,284.2,105.21 M286.78,106.7c0.35,0.2,0.64,0.04,0.64-0.37c0-0.41-0.28-0.9-0.64-1.1
						c-0.36-0.21-0.64-0.05-0.64,0.36C286.14,106,286.42,106.49,286.78,106.7 M281.62,103.72c0.35,0.2,0.64,0.04,0.64-0.36
						c0-0.41-0.28-0.9-0.64-1.1c-0.36-0.21-0.64-0.04-0.64,0.36C280.98,103.02,281.27,103.52,281.62,103.72"/>
				</g>
				<g id="XMLID_575_">
					<path id="XMLID_576_" class="st17" d="M323.34,131.07c0.62,0.36,1.12,1.22,1.11,1.94l-0.08,27.77c0,0.71-0.5,1-1.12,0.64
						l-42.5-24.54c-0.62-0.36-1.12-1.23-1.11-1.94l0.08-27.77c0-0.71,0.5-1,1.12-0.64L323.34,131.07z M302.58,144.2l0.06-21.21
						l-18.46-10.66l-0.06,21.21L302.58,144.2 M320.25,144.64l0-0.85l-13.39-7.73l0,0.85L320.25,144.64 M320.28,136.68l0-0.85
						l-13.39-7.73l0,0.85L320.28,136.68 M320.27,139.33l0-0.84l-13.39-7.73l0,0.84L320.27,139.33 M320.28,134.02l0-0.84l-13.39-7.73
						l0,0.84L320.28,134.02 M320.25,147.3l0-0.84l-13.39-7.73l0,0.84L320.25,147.3 M320.26,141.99l0-0.84l-13.39-7.73l0,0.84
						L320.26,141.99 M316.85,147.99l0-0.84l-9.99-5.77l0,0.84L316.85,147.99"/>
				</g>
			</g>
			<g id="XMLID_571_">
				<path class="st18" d="M281.62,102.26c0.35,0.2,0.64,0.69,0.64,1.1c0,0.4-0.29,0.57-0.64,0.36c-0.36-0.21-0.64-0.7-0.64-1.1
					C280.99,102.21,281.27,102.05,281.62,102.26z"/>
			</g>
			<g id="XMLID_577_">
				<path class="st23" d="M284.2,103.74c0.35,0.2,0.64,0.69,0.64,1.1c0,0.4-0.29,0.57-0.64,0.36c-0.36-0.21-0.64-0.7-0.64-1.1
					C283.56,103.7,283.85,103.54,284.2,103.74z"/>
			</g>
		</g>
		<path class="st10" d="M306.87,134.26l13.39,7.73l0-0.84l-13.39-7.73L306.87,134.26z M306.88,131.6l13.39,7.73l0-0.84l-13.39-7.73
			L306.88,131.6z M306.9,125.45l0,0.84l13.39,7.73l0-0.84L306.9,125.45z M306.89,128.95l13.39,7.73l0-0.85l-13.39-7.73
			L306.89,128.95z M306.86,139.57l13.39,7.73l0-0.84l-13.39-7.73L306.86,139.57z M306.87,136.91l13.39,7.73l0-0.85l-13.39-7.73
			L306.87,136.91z M306.85,142.22l9.99,5.77l0-0.84l-9.99-5.77L306.85,142.22z"/>
		<g>
			<polygon class="st14" points="290.22,117.11 286.14,122.92 294.3,127.63 			"/>
			<path class="st17" d="M294.84,128.26l-9.1-5.25l4.55-6.47L294.84,128.26z M286.53,122.83l7.23,4.18l-3.62-9.32L286.53,122.83z"/>
		</g>
		<g>
			<path class="st1" d="M298.59,129.94c0,2.03-1.43,2.85-3.18,1.84c-1.76-1.01-3.18-3.48-3.18-5.51c0-2.03,1.43-2.85,3.18-1.84
				C297.16,125.44,298.59,127.91,298.59,129.94z"/>
			<path class="st17" d="M296.82,132.49c-0.48,0-1.01-0.16-1.56-0.47c-1.83-1.06-3.32-3.64-3.32-5.75c0-1.08,0.38-1.9,1.07-2.3
				c0.69-0.4,1.59-0.32,2.52,0.22c1.83,1.06,3.32,3.64,3.32,5.75c0,1.08-0.38,1.9-1.07,2.3
				C297.5,132.41,297.17,132.49,296.82,132.49z M293.98,124.27c-0.26,0-0.49,0.06-0.69,0.18c-0.51,0.3-0.8,0.94-0.8,1.82
				c0,1.94,1.37,4.31,3.05,5.28c0.76,0.44,1.46,0.52,1.98,0.22c0.51-0.3,0.8-0.94,0.8-1.82c0-1.94-1.37-4.31-3.05-5.28
				C294.81,124.4,294.37,124.27,293.98,124.27z"/>
		</g>
		<g>
			<path class="st23" d="M290.51,132.95c0,1.32-0.93,1.86-2.08,1.2c-1.15-0.66-2.08-2.27-2.08-3.6c0-1.32,0.93-1.86,2.08-1.2
				C289.58,130.01,290.51,131.62,290.51,132.95z"/>
			<path class="st17" d="M289.36,134.71c-0.33,0-0.69-0.11-1.06-0.32c-1.24-0.72-2.21-2.4-2.21-3.83c0-0.74,0.26-1.3,0.75-1.58
				c0.48-0.28,1.1-0.22,1.74,0.15c1.24,0.72,2.21,2.4,2.21,3.83c0,0.74-0.26,1.3-0.75,1.58
				C289.83,134.65,289.6,134.71,289.36,134.71z M287.5,129.34c-0.15,0-0.29,0.03-0.4,0.1c-0.3,0.18-0.47,0.57-0.47,1.11
				c0,1.24,0.87,2.74,1.94,3.36c0.47,0.27,0.89,0.32,1.2,0.15c0.3-0.18,0.47-0.57,0.47-1.11c0-1.23-0.87-2.74-1.94-3.36
				C288.01,129.42,287.74,129.34,287.5,129.34z"/>
		</g>
	</g>
	<g id="XMLID_725_">
		<g id="XMLID_23225_">
			<path id="XMLID_1287_" class="st24" d="M261.67,206.74v0.52c1.03,0.61,3.35,0.28,3.95,0c0.4-0.6,1.48-0.44,2.08-0.2
				c2.31,0.2,3.16-0.14,3.93-0.7c0.39-0.29,1.09-1.03,1.01-1.83C269.9,205.16,261.67,206.74,261.67,206.74z"/>
			<path id="XMLID_1290_" class="st25" d="M265.63,202.74c0,0,2.53,0.71,4.02,0.93c1.5,0.21,2.56-0.04,2.92,0.5
				c0.36,0.53-0.43,1.92-1.74,2.39c-1.32,0.46-4.02-0.07-5.02,0.14c-1,0.21-3.53,0.68-4.13,0.05c-0.61-0.62,0-3.65,0-3.65
				L265.63,202.74z"/>
			<path id="XMLID_23066_" class="st25" d="M251.61,199.4l4.52-5.06c1.8-0.52,3.7-0.62,3.46,1.04c-0.21,1.48-2.57,2.12-4.18,3.56
				l-1.49,1.32C252.85,201.22,251.48,200.38,251.61,199.4"/>
			<path id="XMLID_23073_" class="st26" d="M280.55,134.38c0.99-0.6,2.29-1.96,2.72-3.02c0.37-0.93,0.75-1.88,0.8-2.87
				c0.05-0.89-0.18-1.78-0.63-2.55c-0.04-0.06-0.08-0.13-0.14-0.17c-0.22-0.15-0.49,0.11-0.63,0.34c-0.81,1.28-1.53,2.71-2.54,3.84
				c0.07-0.43,0.23-0.96,0.42-1.35c0.33-0.67-0.24-0.64-0.24-0.64c-0.38,0.24-1.48,2.02-1.64,2.68c-0.16,0.66-0.55,2.36-0.55,2.36
				l0.21,0.19c-0.17,0.23-0.27,0.38-0.27,0.38C278.05,133.56,279.87,134.79,280.55,134.38z"/>
			<path id="XMLID_23072_" class="st27" d="M251.98,138.52c0,0-6.25,2.27-1.38,8.71L251.98,138.52z"/>
			<path id="XMLID_23070_" class="st26" d="M255.92,125.89c1.34-0.22,3.17-0.26,4.47,0.12c2.18,0.64,3.37,2.04,3.9,4.11
				c0.53,2.09,0.69,5.57-0.51,7.5c-0.75,1.21-2.41,0.98-3.6,0.67c-1.44-0.38-3.32-1-4.49-1.89c-1.64-1.24-2.51-3.95-2.61-5.92
				C253,128.79,253.87,126.22,255.92,125.89"/>
			<path id="XMLID_23069_" class="st26" d="M255.89,135.96c0.18,0.19,0.36,0.36,0.56,0.51c1.18,0.89,2.3,1.44,3.74,1.82
				c0.23,0.06,0.48,0.11,0.73,0.16l-0.11,1.31c-1.53,0.42-3.01-0.23-4.07-0.52c-0.79-0.22-2-0.42-2-1.24L255.89,135.96
				L255.89,135.96z"/>
			<path id="XMLID_23068_" class="st25" d="M254.22,126.27c-1.31,0.87-1.21,2.84-1.14,4.21c0.1,1.96,0.97,4.68,2.61,5.92
				c0.91,0.68,0.95,0.76,2.16,1.14c0.11-0.05,0.39-0.24,0.7-0.47c0.68-0.5,1-1.37,0.75-2.17c-0.24-0.79-0.27-1.74,0.18-1.98
				c0.73-0.4,1.22,1.02,1.22,1.02c0.42-0.15,1.06-0.64,0.71-1.49c-0.35-0.84,0-1.73,0-1.73c1.3,0.03,1.9-1.74,2.31-1.97
				c0.88-0.49,1.17-0.69,1.03-1.52c-0.09-0.55-0.32-1.09-0.72-1.46c-0.46-0.43-2-1.01-2.6-1.16
				C257.83,123.7,255.05,124.34,254.22,126.27z"/>
			<path id="XMLID_23065_" class="st24" d="M253.92,200.27l1.49-1.32c1.62-1.44,3.97-2.08,4.18-3.56v0v0v0l0,0l0-0.01v0l0,0v0v0v0v0
				l0,0v0v0v0l0,0v0v0v0l0,0v0l0,0v0l0,0v0l0,0v0l0,0v0c0.02,0.15,0.02,0.31,0,0.5c-0.21,1.48-2.57,2.12-4.18,3.56l-1.49,1.32
				c-1.26,1.12-2.6,0.32-2.31-1.34C251.48,200.38,252.85,201.22,253.92,200.27"/>
			<path id="XMLID_23064_" class="st28" d="M251.64,164.21c-1.56,2.21,2.34,8.33,1.28,15.95c-0.72,5.17-2.14,13.84-1.8,18.74
				c0.06,0.89,3.55,1.53,4.49-2.79c1.61-7.34,3.62-11.92,4.33-17.62l-0.38-16.52L251.64,164.21z"/>
			<path id="XMLID_23063_" class="st28" d="M256.63,163.4c-0.43,6.86,4.49,15.26,4.16,20.8c-0.34,5.71,0.29,12.66,0.3,18.85
				c0,0,5.05,2.39,5.28-1.3c0.74-12.12,3.06-15.89-0.07-38.06L256.63,163.4z"/>
			<path id="XMLID_23228_" class="st29" d="M265.79,156.76c0.18-6.61-1.06-13.13-1.06-13.13c-0.6-0.86-1.31-1.59-2.16-2.2
				l-1.62-1.96c-2.06-0.51-4.08-1.12-6.04-1.84l-2.93,0.88c-2.38,1.01-3.17,4.09-2.11,7.17c-0.03,0.14,2.42,7.13,2.7,9.72
				c0.03,0.25-1.81,7.11-2.21,9.91c0,0,1.74,1.59,2.22,1.99c3.54,4.4,15.13-0.94,15.56-3.28
				C268.31,163.17,266.89,160.45,265.79,156.76z"/>
		</g>
		<path id="XMLID_726_" class="st1" d="M261.89,148.23c-2.34,0.06-4.38-3.06-3.1-5.03c0.46-0.7,0.88-1.28,1.66-1.51
			c1.93-0.55,7.69,0.78,11.36,0.88c2.94-3.58,6.19-9.95,6.19-9.95c2.29,0.15,2.94,1.8,2.94,1.8c-4.96,12.76-6.59,12.95-6.86,13.25
			C273.8,147.98,261.91,148.23,261.89,148.23z"/>
	</g>
	<g id="XMLID_516_">
		<g id="XMLID_560_">
			<g>
				<path id="XMLID_519_" d="M307.02,241.79c0.01,0.18,0.01,0.37,0,0.55V241.79z"/>
				<path id="XMLID_520_" d="M307.02,249.63c0.01,0.14,0.01,0.29,0,0.45V249.63z"/>
				<path id="XMLID_521_" class="st14" d="M307.02,249.63v0.45c-0.08,1.79-1.3,3.56-3.64,4.91l-91.5,52.83
					c-4.86,2.81-12.83,2.81-17.69,0L130,270.75c-2.46-1.42-3.68-3.31-3.65-5.17v-0.01v-7.77c0.01,1.84,1.23,3.68,3.65,5.07
					l64.2,37.07c4.86,2.81,12.82,2.81,17.69,0l91.5-52.83c2.27-1.31,3.5-3.02,3.64-4.76V249.63z"/>
				<path id="XMLID_522_" class="st30" d="M284.93,226.24l6.81,3.94h0.01l11.63,6.71c2.34,1.35,3.56,3.11,3.64,4.9v0.55
					c-0.14,1.74-1.37,3.45-3.64,4.76l-91.5,52.83c-4.86,2.81-12.83,2.81-17.69,0L130,262.86c-2.42-1.39-3.64-3.23-3.65-5.07
					c-0.01-1.86,1.2-3.73,3.65-5.14l91.52-52.83c4.86-2.81,12.81-2.81,17.67,0l18.44,10.64l-6.83,3.96l-20.47-11.82l-88.72,51.22
					l68.25,39.39L298.59,242l-20.47-11.82v-0.01l6.8-3.94v0.01H284.93z"/>
				<polygon id="XMLID_523_" class="st17" points="278.12,230.18 278.12,230.17 250.81,214.42 230.34,202.6 141.63,253.82 
					209.87,293.22 298.59,242 				"/>
			</g>
		</g>
		<g id="XMLID_517_">
			<g class="st0">
				<g id="XMLID_537_">
					<path id="XMLID_538_" class="st1" d="M278.08,213.27l-0.02,8.8c0-0.45-0.3-0.91-0.89-1.25c-1.19-0.69-3.11-0.69-4.29,0
						c-0.59,0.34-0.89,0.79-0.89,1.24l0.02-8.8c0-0.45,0.3-0.9,0.89-1.24c1.18-0.69,3.1-0.69,4.29,0
						C277.79,212.36,278.08,212.81,278.08,213.27z"/>
				</g>
				<g id="XMLID_539_">
					<path id="XMLID_540_" class="st1" d="M286.45,216.01l-0.03,8.8c0,1.52-1,3.04-3,4.2l0.02-8.8
						C285.45,219.05,286.45,217.53,286.45,216.01z"/>
				</g>
				<g id="XMLID_541_">
					<polygon id="XMLID_542_" class="st1" points="283.45,220.21 283.43,229.01 281.01,230.42 281.03,221.62 					"/>
				</g>
				<path id="XMLID_543_" class="st1" d="M284.27,230.31c-2.09,1.22-5.51,1.22-7.61,0l-31.06-17.93c-1.06-0.61-1.59-1.42-1.59-2.22
					l-0.02,1.82c0,0.8,0.53,1.61,1.59,2.22l31.06,17.93c2.11,1.22,5.52,1.21,7.61,0l5.89-3.42l0.02-1.82L284.27,230.31z"/>
				<g id="XMLID_544_">
					<path id="XMLID_545_" class="st3" d="M281.03,221.62l9.13,5.27l-5.89,3.42c-2.09,1.22-5.51,1.22-7.61,0l-31.06-17.93
						c-2.11-1.22-2.12-3.2-0.02-4.41l5.89-3.42l9.14,5.28l2.42-1.41c4.02-2.34,10.54-2.34,14.58,0l5.81,3.35
						c4.04,2.33,4.06,6.11,0.04,8.44L281.03,221.62z M272.9,214.51c1.19,0.69,3.11,0.69,4.3,0c1.18-0.69,1.17-1.8-0.01-2.49
						c-1.19-0.69-3.11-0.69-4.29,0C271.71,212.71,271.71,213.82,272.9,214.51"/>
				</g>
			</g>
		</g>
	</g>
	<g id="XMLID_524_">
		<g>
			<path class="st31" d="M265.98,241.18l-33.87-19.55l-1.84,1.07l33.87,19.55L265.98,241.18z M211.65,221.42l-1.84,1.07l54.76,31.62
				l1.84-1.07L211.65,221.42z M199.79,228.31l54.76,31.62l1.84-1.07l-54.76-31.62L199.79,228.31z M189.76,234.13l54.76,31.62
				l1.84-1.07l-54.76-31.62L189.76,234.13z M179.74,239.96l54.76,31.62l1.84-1.07l-54.76-31.62L179.74,239.96z M169.72,245.78
				L204.74,266l1.84-1.07l-35.02-20.22L169.72,245.78z"/>
		</g>
	</g>
	<g id="XMLID_1419_">
		<path id="XMLID_1459_" class="st14" d="M223.15,106.58c0.11-0.39,0.23-0.77,0.41-1.15c0.05-0.12,0.12-0.24,0.22-0.32
			c0.39-0.28,1.55,0.13,1.95,0.31c1.6,0.7,2.47,2.51,3.43,3.86c0.96,1.35,1.93,2.75,3.06,3.98c1.55,1.67-0.29,2.33-2.61,2.26
			c-1.57-0.05-2.65-1.32-3.78-2.22c-0.9-0.71-2.31-0.85-2.98-1.82c-0.5-0.72-0.37-1.69-0.19-2.55
			C222.83,108.12,222.95,107.35,223.15,106.58z"/>
		<path id="XMLID_1458_" class="st14" d="M212.63,114.59c0.11-0.39,0.24-0.79,0.42-1.18c0.05-0.12,0.12-0.25,0.23-0.33
			c0.4-0.29,1.59,0.14,2,0.32c1.64,0.72,2.53,2.57,3.51,3.95c0.99,1.39,1.97,2.82,3.13,4.07c1.58,1.71-0.3,2.39-2.68,2.31
			c-1.61-0.05-2.71-1.35-3.87-2.27c-0.92-0.73-2.36-0.87-3.05-1.87c-0.51-0.74-0.38-1.73-0.19-2.61
			C212.3,116.16,212.42,115.37,212.63,114.59z"/>
		<path id="XMLID_1454_" class="st9" d="M197.56,84.06c0,0,15.91,7.4,18.32,11.32c2.42,3.92,2.06,19.76,2.06,19.76
			c-3.7,1.57-5.71,0-5.71,0c-2.04-10.43-2.58-14.79-2.58-14.79C197.85,94.91,194.15,93.56,197.56,84.06z"/>
		<path id="XMLID_1424_" class="st9" d="M207.16,82.58c0,0,14.33,3.14,18.02,5.52c3.7,2.38,2.57,18.39,2.57,18.39
			c-2.76,1.49-5.13,0-5.13,0c-1.01-7.91-2.25-11.63-2.25-11.63s-12.57-2.84-16.29-4.66C198.17,87.32,205.43,82.25,207.16,82.58z"/>
		<path id="XMLID_1468_" class="st25" d="M210.14,59.26c1.79,0.85,1.63,13.42,1.75,14.92c0.12,1.5,7.75,11.14,7.75,11.14
			c-0.99,2.1-3.81,2.46-3.81,2.46c-0.39-0.53-6.49-6.75-8.78-11.15C204.76,72.24,205.51,57.06,210.14,59.26z"/>
		<path id="XMLID_1453_" class="st32" d="M208.61,58.47c-3.59-0.18-9.91,1.65-12.67,5.13c-2.76,3.48-1.02,7.79-0.09,11.51
			c0.93,3.73-0.24,10.51-0.24,11.41c4.24,2.84,11.73,0.25,12.91-3.95c0.5-4.58-0.36-3.83-0.41-6.51
			C208.27,70.3,213.35,60.2,208.61,58.47z"/>
		<path id="XMLID_1452_" class="st25" d="M205.47,59.31c1.87,8.12,0.53,15.23,0.12,18.67c-0.41,3.44,1.57,11.78,1.57,11.78
			c2.77-1.4,3.21-3.85,3.09-5.03c-0.82-8.05-0.93-9.58-0.9-9.84c0.51-4.35,2.25-7.63,2.1-11.78c-0.15-4.15-2.85-4.64-2.85-4.64
			l-3.46-0.02L205.47,59.31z"/>
		<path id="XMLID_1450_" class="st33" d="M200.55,55.99c0,0,0.28,3.36-0.61,4.59c-0.07,0.83,2.28,4.34,4.64,3.74
			c1.37-0.35,1.22-1.95,1.22-1.95c-0.14-1.22,0.02-4.17,0.02-4.17L200.55,55.99z"/>
		<path id="XMLID_1448_" class="st25" d="M199.79,60.04c2.76,5.91,1.72,9.55,1.6,14.41c-0.12,4.86-2.64,18.51-2.64,18.51
			c-4.84-1.21-6.35-2.28-7.28-3.94c2.1-9.48,1.83-21.55,2.45-25.43C194.42,60.5,199.79,60.04,199.79,60.04z"/>
		<path class="st24" d="M199.34,89.61c0.29-1.71,0.66-3.88,1-6.11c-1.54-1.96-2.97-3.94-3.02-4.62c-0.12-1.5,1.76-14.15-0.03-15.01
			c-1.44-0.68-2.67,0.32-3.61,2.17c-0.25,3.68-0.37,9.61-1.03,15.59C194.42,84.86,197.67,88.02,199.34,89.61z"/>
		<path id="XMLID_1445_" class="st34" d="M200.42,59.26c-0.02,0.1-0.63,0.78-0.63,0.78s1.2,2.66,1.63,3.83
			c0.43,1.17,1.57,2.15,1.57,2.15l1.58-1.71C202.42,63.16,200.42,59.26,200.42,59.26z"/>
		<path id="XMLID_1444_" class="st34" d="M205.61,60.13c-0.14-0.18-0.51,3.31-1.03,4.19c1,0.95,1.6,1.21,1.6,1.21
			S206.8,61.63,205.61,60.13z"/>
		<path id="XMLID_1451_" class="st26" d="M210.05,51.74c0,0-0.15,2.11-0.47,3.73c-0.53,2.63-1.46,4.69-3.1,5.38
			c-1.65,0.69-4.1-0.55-5.18-2c-1.08-1.45-1.32-4.27-0.77-6.82c0.55-2.55,2.26-5.43,5.89-4.44
			C210.03,48.59,210.05,51.74,210.05,51.74z"/>
		<path id="XMLID_1460_" class="st15" d="M210.25,53.13c0.12,1.57-5.03,0.97-6.4,0.42c-0.31,1.35-0.77,1.94-1.26,2.07
			c-0.49,0.13-0.99,2.28-1.29,3c-1.86-1.99-1.71-4.82-1.49-8.07c0.22-3.25,3.07-3.16,3.07-3.16
			C204.8,47.64,209.92,48.78,210.25,53.13z"/>
		<path id="XMLID_1470_" class="st15" d="M201.3,49.07c1.35-2.41,6.81-3.08,8.96,0.72c2.15,3.8-0.76,3.72-0.76,3.72L201.3,49.07z"/>
		<path id="XMLID_1472_" class="st35" d="M202.84,55.75c0.27-1.58,0.06-2.22-0.77-1.84c-0.83,0.38-1.04,2.34,0,2.63
			C203.12,56.83,202.84,55.75,202.84,55.75z"/>
		<g id="XMLID_1449_">
			<path id="XMLID_1441_" class="st36" d="M222.78,87.53l-8.96-5.17l-15.14,8.74l-1.17,0.17v0.3c0,0.13,0.05,0.22,0.17,0.29
				l9.13,5.27c0.28,0.16,0.76,0.14,1.08-0.04l15.14-8.74c0.2-0.11,0.28-0.26,0.26-0.4v-0.5L222.78,87.53z"/>
			<g id="XMLID_1294_">
				<path id="XMLID_1436_" class="st37" d="M223.04,87.85L207.9,96.6c-0.32,0.18-0.8,0.2-1.08,0.04l-9.29-5.37l16.3-9.41l9.29,5.37
					C223.4,87.39,223.36,87.67,223.04,87.85z"/>
				<path id="XMLID_1429_" class="st38" d="M223.04,87.85L207.9,96.6c-0.32,0.18-0.8,0.2-1.08,0.04l-9.29-5.37l16.3-9.41l9.29,5.37
					C223.4,87.39,223.36,87.67,223.04,87.85z"/>
				<polygon id="XMLID_1297_" class="st28" points="222.21,87.72 207.46,96.24 203.06,93.7 217.81,85.18 				"/>
				<path id="XMLID_1296_" class="st36" d="M211.69,87.4l-3.51,2.03c-0.2,0.11-0.5,0.13-0.67,0.03l-1.68-0.97
					c-0.17-0.1-0.15-0.27,0.05-0.39l3.51-2.03c0.2-0.12,0.5-0.13,0.67-0.03l1.68,0.97C211.91,87.11,211.89,87.29,211.69,87.4z"/>
			</g>
			<g id="XMLID_1304_">
				<path id="XMLID_1305_" class="st36" d="M223.04,87.85L207.9,96.6l5.36-11.25c0.18-0.36,0.54-0.78,0.82-0.94l14.24-8.22
					c0.28-0.16,0.36,0,0.18,0.36L223.04,87.85z"/>
			</g>
		</g>
		<path id="XMLID_1299_" class="st26" d="M203.28,86.29c0,0,1.16,0.49,2.1,0.79c0.93,0.3,1.98,0.9,2.45,1.18
			c0.48,0.27,0.08,0.54-0.57,0.55c-0.65,0-1.6-0.34-1.6-0.34s1.5,0.65,1.98,0.89c0.49,0.24,1.64,1.09,1.61,1.36
			c-0.03,0.27-0.98-0.1-0.98-0.1s0.46,0.3,0.6,0.59c0.14,0.29-0.3,0.49-0.79,0.27s-2.01-0.72-2.01-0.72s1.56,0.76,1.75,1.05
			c0.19,0.29-0.37,0.47-0.96,0.2c-0.59-0.27-1.66-0.69-1.66-0.69s1.1,0.57,1.22,0.82c0.11,0.25-0.52,0.26-1.12,0
			c-0.6-0.26-3.03-1.64-3.6-2.2c-0.57-0.56-1.06-1.75-1.06-1.75L203.28,86.29z"/>
		<path id="XMLID_1456_" class="st25" d="M196.72,61.6c1.79,0.85-0.08,13.51,0.03,15.01c0.12,1.5,6.87,9.28,6.87,9.28
			c-0.99,2.1-3.81,2.46-3.81,2.46c-0.39-0.53-5.61-4.89-7.9-9.28C189.62,74.66,192.1,59.4,196.72,61.6z"/>
	</g>
	<g id="XMLID_1420_">
		<path id="XMLID_1491_" class="st29" d="M87.43,85.57c0,0-6.36,4.5-9.03,5.99c-2.66,1.49-12.43-4.3-12.43-4.3s-2.05,0.66-1.43,2.92
			c6.81,4.59,11.88,7.15,13.91,6.69c2.03-0.46,7.66-2.81,9.73-3.91C90.25,91.86,90.27,85.31,87.43,85.57z"/>
		<g id="XMLID_1482_">
			<path id="XMLID_1490_" class="st28" d="M88.6,154.91c-0.13,1.84-0.3,3.68-0.3,3.68h-0.41c0,0,0-2.78-0.43-2.2
				C87.51,154.88,88.6,154.91,88.6,154.91z"/>
			<path id="XMLID_1489_" class="st26" d="M82.91,158.05c-0.2,0-0.46-0.21-0.7-0.54c0.42-0.5,0.83-0.99,1.11-1.37
				c0.89-1.23,2.32-3.95,2.38-5.18c0.07-1.23-0.68-14.04-0.89-15.6c-0.2-1.57-0.79-7.49-0.74-7.84c0.06-0.34,5.51,2.11,5.51,2.11
				c-0.07,0.48-0.81,3.55-0.5,5.53c0.3,1.98,0.78,3.28,0.5,6.51c-0.27,3.23-1.84,8.41-1.29,10.86c0.01,0.04,0.02,0.08,0.03,0.13
				C86.72,154.85,86.16,159.13,82.91,158.05z"/>
			<path id="XMLID_1488_" class="st28" d="M82.21,157.51c0.24,0.32,0.5,0.54,0.7,0.54c3.24,1.08,3.81-3.19,5.41-5.39
				c0.51,2.33,0.28,2.61-0.14,2.94c-0.43,0.34-1.93,2.18-2.2,3.47c-0.27,1.29-4.36,1.16-5.11,0.89
				C80.35,159.77,81.29,158.61,82.21,157.51z"/>
			<path id="XMLID_1487_" class="st26" d="M94.18,140.67c0.16,1.43,1,12.47,0.86,14.31c-0.08,1.12-0.62,2.89-0.95,4.31
				c-0.21,0.9-0.34,1.66-0.21,2.03c0.33,0.94,0.34,3.75,1.86,3.12c1.53-0.63,2.53-2.59,2.22-4.75c-0.31-2.16,0.06-3.2-0.03-4.5
				c-0.09-1.29,0.78-9.34,0.92-12.19c0.14-2.87-0.82-4.23-0.89-6.14c-0.07-1.91,0.51-5.89,0.51-5.89s-6.57-3.44-6.03,0.71
				C92.99,135.83,94.02,139.24,94.18,140.67z"/>
			<path id="XMLID_1486_" class="st28" d="M100.97,109.05c0.89,4.07-1.24,6.78-1.63,7.7c-0.39,0.92,0.86,12.45,0.86,12.45
				c-3.45,4.81-15.52,1.85-17.49-1.17c0.27-7.1,0.95-18.73,0.88-19.96C83.53,106.83,100.97,109.05,100.97,109.05z"/>
			<path id="XMLID_1483_" class="st28" d="M93.61,161.42c0.1,1.92,0.61,3.65,2.13,3.02c1.53-0.63,2.53-2.59,2.22-4.75
				c-0.82,2.39-3.94,2.28-3.88-0.39C93.88,160.19,93.59,161.03,93.61,161.42z"/>
		</g>
		<path id="XMLID_1446_" class="st28" d="M89.2,70.78c-2.08,1.98-2.77,3.71-2.47,5.65c0.3,1.94,0.65,4.41-0.35,5.14
			c2.12,1.64,6.12-0.73,6.04-1.17c-0.08-0.43-2.23-6.69-2.43-6.74L89.2,70.78z"/>
		<path id="XMLID_1443_" class="st28" d="M87.43,85.5c4.45-2.08,12.09-0.88,15.08,2.19c2.99,3.07-3.29,8.74-4.33,12
			c-1.04,3.26,6.12,12.42,3.76,15.23c-4.63,2.47-17.99,0.78-19.25-2.91c0.05-5.47,3.54-10.26,2.71-12.54
			c-0.04-1.46-2.28-6.22-1.39-8.06C85.84,87.66,85.45,86.65,87.43,85.5z"/>
		<path id="XMLID_1434_" class="st26" d="M87.96,73.42c0,0-0.61,2.14-0.38,3.81c0.23,1.66,0.38,4.98,1.85,6.04
			c1.47,1.06,3.59-0.17,4.99-1.36c1.4-1.19,2.88-3.38,2.92-6.03c0.03-2.65-1-5.9-4.83-5.74C88.69,70.31,87.96,73.42,87.96,73.42z"/>
		<path id="XMLID_1432_" class="st26" d="M94.47,81c0,0-0.25,3.41,0.5,4.67c0.05,0.84-1.95,4.4-3.93,3.78
			c-1.16-0.36-1.02-1.99-1.02-1.99c0.12-1.24,0-4.24,0-4.24L94.47,81z"/>
		<path id="XMLID_1428_" class="st28" d="M91.47,73.53c0.78,2.72,3.17,3.37,3.17,3.37c0.39,3.63-0.47,6.2-1.64,6.77
			c3.17,1.15,5.01,0.27,5.87-1.43s1.54-8.96-2.03-11.17C93.28,68.87,91.47,73.53,91.47,73.53z"/>
		<path id="XMLID_1427_" class="st28" d="M91.47,73.53c-1.1,1.49-3.54,1.55-3.94,1.49c0.05-5.77,5.62-6.35,7.44-4.28
			C93.48,73.6,91.47,73.53,91.47,73.53z"/>
		<path id="XMLID_1426_" class="st39" d="M101.84,87.68"/>
		<path id="XMLID_1425_" class="st32" d="M95.78,100.3c-0.22-0.1,1.08-10.36,1.08-10.36l-9.05-1.79L87.43,104l8.2,1.92L95.78,100.3z
			"/>
		<path id="XMLID_1422_" class="st26" d="M90.95,97.68c0,0-2.88-2.81-3.52-3.46c-0.64-0.65-0.63,0.22,0.2,1.73
			c-1.3,0.31-2.13,2.05-2.22,2.66c-0.09,0.61,1.56,2.18,2.03,2.37c0.47,0.19,2.4,0,2.4,0L90.95,97.68z"/>
		<path id="XMLID_1421_" class="st29" d="M101.05,87.2c-2.47,0.18-2.87,13.54-2.87,13.54s-6.76-3.14-7.23-3.06
			c-2.5,0.54-1.13,3.29-1.13,3.29c5.29,4.02,7.43,6.33,10.01,5.83c2.58-0.5,4.53-9.73,4.44-13.89
			C104.18,88.75,102.61,87.09,101.05,87.2z"/>
		<path id="XMLID_1492_" class="st26" d="M66.06,88.03c-0.2-0.1-0.97-1.52-1.35-1.86c-0.38-0.35-1.88-1.19-2.3-1.88
			c-0.42-0.69-0.46,0.95,0,1.32c0.46,0.37,0.84,0.72,0.84,0.72s-2.56-1.55-3.29-1.69s-1.69-0.44-1.84,0
			c-0.15,0.44,0.32,2.47,0.74,2.93c0.42,0.46,1.28,0.99,2.43,1.56c1.15,0.58,3.84,0.75,3.84,0.75
			C65.81,89.42,66.15,88.81,66.06,88.03z"/>
	</g>
	<g id="XMLID_1512_">
		<polygon id="XMLID_1517_" class="st29" points="203.86,225.52 215.86,218.59 215.86,152.51 203.86,159.43 		"/>
		<polygon id="XMLID_1515_" class="st40" points="184.96,236.43 196.96,229.5 196.96,196.85 184.96,203.78 		"/>
		<polygon id="XMLID_1514_" class="st41" points="166.07,247.34 178.07,240.41 178.07,195.43 166.07,202.35 		"/>
	</g>
	<g id="XMLID_1493_">
		<g id="XMLID_1497_">
			<path id="XMLID_1513_" class="st35" d="M221.27,167.18c0,0-0.97-6.32-2.38-8.09c-1.41-1.76-0.05,2.97-0.28,3.36
				c-1.46,0.64-2.49,2.45-1.62,3.89c0.87,1.45,1.98,1.44,1.98,1.44L221.27,167.18z"/>
			<path id="XMLID_1502_" class="st42" d="M235.74,185.11c-9.67-3.45-11.02-4.33-11.02-4.33s-2.61-12.02-2.91-14.1
				c-1.98-0.59-3.96,1.11-3.96,1.11c1.11,9.84,1.15,14.81,2.07,16.79c0.92,1.98,9.99,5.99,12.47,7.05
				C234.89,192.69,239.3,189.64,235.74,185.11z"/>
			<path id="XMLID_1511_" class="st26" d="M226.94,173.18c-2.08,0.92-3.99,7.86-2.85,10.3c1.14,2.44,2.95,2.63,5.23,2.02
				s4.87-3.6,5.71-6.38C236.18,175.33,232.86,170.54,226.94,173.18z"/>
			<g id="XMLID_1499_">
				<g id="XMLID_1500_">
					<path id="XMLID_1510_" class="st24" d="M224.51,256.81v0.55c-1.09,0.64-3.54,0.3-4.18,0c-0.42-0.64-1.56-0.47-2.21-0.22
						c-2.45,0.22-3.35-0.15-4.17-0.75c-0.41-0.3-1.16-1.09-1.07-1.93C215.8,255.13,224.51,256.81,224.51,256.81z"/>
					<path id="XMLID_1509_" class="st25" d="M220.32,252.57c0,0-2.68,0.75-4.26,0.98c-1.58,0.23-2.71-0.04-3.09,0.53
						c-0.38,0.57,0.45,2.04,1.85,2.53c1.39,0.49,4.26-0.08,5.31,0.15c1.06,0.23,3.73,0.71,4.37,0.06c0.64-0.66,0-3.86,0-3.86
						L220.32,252.57z"/>
					<path id="XMLID_1508_" class="st25" d="M235.16,249.04l-4.79-5.36c-1.91-0.55-3.92-0.66-3.66,1.1
						c0.23,1.56,2.72,2.25,4.43,3.77l1.58,1.4C233.85,250.96,235.3,250.08,235.16,249.04"/>
					<path id="XMLID_1507_" class="st26" d="M230.63,181.88c-0.19,0.2-0.38,0.38-0.59,0.54c-1.25,0.94-2.43,1.53-3.95,1.93
						c-0.24,0.06-0.5,0.12-0.77,0.17l0.12,1.39c1.62,0.44,3.19-0.24,4.3-0.55c0.83-0.23,2.12-0.44,2.12-1.32L230.63,181.88
						L230.63,181.88z"/>
					<path id="XMLID_1506_" class="st24" d="M232.72,249.95l-1.58-1.4c-1.71-1.52-4.2-2.2-4.43-3.77v0v0l0,0v0l0-0.01v0v0l0,0v0v0v0
						v0v0l0,0v0l0,0v0v0v0v0l0,0l0,0v0l0,0v0l0,0v0l0,0v0c-0.03,0.15-0.03,0.33,0,0.53c0.23,1.56,2.72,2.25,4.43,3.77l1.58,1.4
						c1.34,1.19,2.75,0.34,2.44-1.42C235.3,250.08,233.85,250.96,232.72,249.95"/>
					<path id="XMLID_1505_" class="st43" d="M235.13,211.78c1.65,2.34-2.48,8.82-1.35,16.89c0.77,5.47,2.26,14.65,1.9,19.84
						c-0.07,0.94-3.76,1.62-4.76-2.95c-1.7-7.77-3.83-12.62-4.58-18.65l0.4-17.49L235.13,211.78z"/>
					<path id="XMLID_1504_" class="st29" d="M229.84,210.93c0.46,7.26-4.75,16.15-4.4,22.02c0.36,6.05-0.3,13.4-0.32,19.95
						c0,0-5.35,2.53-5.59-1.38c-0.79-12.82-3.24-16.82,0.07-40.28L229.84,210.93z"/>
					<path id="XMLID_1501_" class="st25" d="M220.15,203.9c-0.19-7,1.12-13.9,1.12-13.9c0.63-0.91,1.39-1.68,2.28-2.33l1.71-2.07
						c1.22-0.3,2.42-0.63,3.6-1c1.92-0.6,3.97-0.59,5.9-0.01l0,0c2.52,1.07,3.01,2.77,1.88,6.03c0.03,0.15-2.22,9.11-2.51,11.85
						c-0.03,0.27,1.91,7.53,2.34,10.49c0,0-1.84,1.69-2.35,2.11c-3.75,4.65-16.01-0.99-16.47-3.47
						C217.48,210.68,218.99,207.8,220.15,203.9z"/>
				</g>
			</g>
			<path id="XMLID_1498_" class="st24" d="M226.17,173.61c0,0-0.61,0.56-0.99,1.77c-0.38,1.21-0.28,2.03-0.31,2.65
				c-0.03,0.62-0.29,0.97-0.16,1.28c0.13,0.31,0.89-1.38,1.61-1.56c0.73-0.17,0.62,2.01-0.97,2.63c-0.68,1.04-0.14,3.59,0.24,4.14
				c0.38,0.56,2.73,1.26,4.72,0.57c1.99-0.7,3.3-2.7,4.94-5.33c1.64-2.63,0-4.53,0-4.53c0.81-1.8-5.34-4.11-7.9-4.18
				C225.77,171.08,226.17,173.61,226.17,173.61z"/>
		</g>
		<g id="XMLID_1494_">
			<g id="XMLID_1519_">
				<g id="XMLID_1496_">
					<path id="XMLID_1536_" class="st35" d="M209.43,204.77c0-0.04-4.47,0.06-5.1-0.67c-0.63-0.73-0.65-3.69-0.65-3.69l-0.45-1.48
						l-0.04-0.14c0,0,0.04-0.02,0.12-0.02c0.2,0,0.57,0.04,0.79,0.32c0.18,0.22,0.38,0.65,0.53,1.05c0.08,0.16,0.12,0.3,0.18,0.41
						c0.06,0.14,0.1,0.26,0.12,0.3c0.02,0.04,0.14,0.1,0.32,0.16c0.12,0.04,0.24,0.08,0.38,0.14c0.55,0.16,1.3,0.38,1.82,0.51
						c0.2,0.04,0.34,0.08,0.43,0.1h0.02c0.08,0.02,0.12,0.04,0.12,0.04S209.41,204.77,209.43,204.77z"/>
				</g>
			</g>
			<g id="XMLID_1522_">
				<path id="XMLID_1529_" class="st28" d="M208.62,201.15c-0.08,0.08-0.4,0.34-0.73,0.59h-0.02c-0.1-0.02-0.24-0.06-0.43-0.1
					l1.11-0.89l-3.22-3.48l-2.05,1.44l0.04,0.04c0.2,0,0.57,0.04,0.79,0.32c0.18,0.22,0.38,0.65,0.53,1.05l0.99,1.01
					c-0.14-0.06-0.26-0.1-0.38-0.14c-0.14-0.16-0.3-0.3-0.43-0.45c-0.77-0.79-1.52-1.56-1.52-1.56c-0.02-0.02-0.04-0.04-0.06-0.06
					c-0.24-0.26-0.3-0.34-0.16-0.43c0.14-0.12,1.82-1.26,1.94-1.34c0.12-0.08,0.26-0.04,0.41,0.14c0.16,0.16,3.24,3.42,3.32,3.5
					C208.79,200.83,208.77,200.97,208.62,201.15z"/>
				<g id="XMLID_1520_">
					<path id="XMLID_1527_" class="st32" d="M208.54,200.76l-1.11,0.89c-0.51-0.14-1.26-0.36-1.82-0.51l-0.99-1.01l-1.32-1.36
						l-0.04-0.04l2.05-1.44L208.54,200.76z"/>
				</g>
			</g>
			<path id="XMLID_1503_" class="st35" d="M210.02,202.83c0,0-1.2-2.09-1.28-2.28c-0.08-0.19-1.78-0.97-2.41-1.31
				c-0.63-0.34-0.34,0.92,0.53,1.41c0.87,0.49,0.94,3.5,1.88,3.74C209.68,204.63,210.02,202.83,210.02,202.83z"/>
		</g>
		<path id="XMLID_1495_" class="st44" d="M227.69,193.11c0.69-2.38-1.95-5.31-4.31-4.53c-0.84,0.28-1.55,0.55-1.99,1.29
			c-1.09,1.83-1.27,8.08-2.17,11.87c-3.79,0.85-9.55-0.1-9.55-0.1c-1.3,2.02-1,3.46-0.63,3.62c8.59,3.83,13.58,2.09,13.96,1.89
			C223.38,206.95,227.68,193.14,227.69,193.11z"/>
	</g>
</g>
</svg>
